<?xml version="1.0" encoding="utf-8"?>
<!-- Generator: Adobe Illustrator 26.4.1, SVG Export Plug-In . SVG Version: 6.00 Build 0)  -->
<svg version="1.1" id="Calque_1" xmlns="http://www.w3.org/2000/svg" xmlns:xlink="http://www.w3.org/1999/xlink" x="0px" y="0px"
	 viewBox="0 0 175 112" style="enable-background:new 0 0 175 112;" xml:space="preserve">
<style type="text/css">
	.st0{font-family:'Mundial-Bold';}
	.st1{font-size:6.8327px;}
	.st2{fill:none;}
</style>
<g>
	<g>
		<text transform="matrix(1.0398 0 0 1 128.5047 47.7177)"><tspan x="0" y="0" class="st0 st1">MAYOTTE </tspan><tspan x="0" y="8.2" class="st0 st1">CONSEIL </tspan><tspan x="0" y="16.4" class="st0 st1">CONCEPTION </tspan><tspan x="0" y="24.6" class="st0 st1">INGÉNIEURIE</tspan></text>
	</g>
	<g>
		<path class="st2" d="M64.98,79.6h7.33l0.91-14.86l0.51-0.57V64c-1.88,0.05-5.2,0.49-8.12,2.79c-5,3.94-5,10.31-4.99,12.87
			c0,2.4,0.01,9.39,5.39,13.22c2.96,2.11,6.21,2.32,7.82,2.3l0-0.14c-0.77-0.81-1.54-1.61-2.31-2.42l0.78-12.8h-7.31V79.6z"/>
		<path class="st2" d="M72.79,26.52h1.05v-1.87C73.28,25.01,72.88,25.61,72.79,26.52z"/>
		<path d="M96.08,96.78c1.06-0.87,1.9-1.62,2.46-2.12l5.8-4.99l-6.12-6.98l-6.18,5.32c-0.91,0.76-2.26,1.9-3.86,3.32c0,0,0,0,0,0
			l-3.44,2.95c0,0,0,0,0,0c-1.4,0.89-3.66,1.67-7.42,1.1v9.6c2.31,0.35,6.73,0.72,10-1.19c1.83-1.08,3.54-2.53,3.54-2.53l0,0l0,0
			l0,0c0.06-0.05,0.11-0.09,0.16-0.14L96.08,96.78z"/>
		<path d="M77.1,63.99c9.42,0,12.44,6.26,12.44,6.26l7.17-6.12c0,0-4.75-9.83-19.63-9.88v8.31L77.1,63.99z"/>
		<path d="M73.82,95.18c-1.61,0.02-4.86-0.19-7.82-2.3c-5.38-3.84-5.39-10.82-5.39-13.22c0-2.56-0.01-8.93,4.99-12.87
			c2.92-2.3,6.24-2.74,8.12-2.79v-9.74c-5.58,0.05-10.29,1.5-14.06,3.93V18.69h-9.9v0c-3.37,2.92-6.73,5.84-10.1,8.76v10.08
			c3.37-2.51,6.73-5.01,10.1-7.52v32.41h5.04c-3.89,4.54-5.93,10.56-5.93,17.03c0,12.88,8.15,25.47,24.95,25.47l0.04-9.84
			c-0.01-0.01-0.03-0.03-0.04-0.04L73.82,95.18z"/>
		<polygon points="99.47,81.38 105.57,88.35 112.99,81.97 106.88,75.01 		"/>
		<rect x="114.39" y="79.47" width="6.7" height="0.22"/>
		<rect x="75.53" y="-0.26" width="0.22" height="15.84"/>
		<rect x="75.53" y="45.6" width="0.22" height="6.43"/>
		<rect x="37.87" y="-0.26" width="0.22" height="18.97"/>
		<rect x="-0.49" y="36.05" width="12.52" height="0.22"/>
		<polygon points="75.75,66.09 75.53,66.09 75.53,79.6 72.3,79.6 64.98,79.6 64.98,79.82 72.29,79.82 75.53,79.82 75.53,90.09 
			75.53,92.71 75.75,92.71 75.75,88.22 75.75,79.82 76.76,79.82 93.01,79.82 93.01,79.6 76.78,79.6 75.75,79.6 		"/>
		<polygon points="37.87,79.6 37.87,79.82 37.87,79.82 38.09,79.82 38.09,79.82 45.94,79.82 45.94,79.6 38.09,79.6 38.09,40.54 
			37.87,40.54 		"/>
		<rect x="75.53" y="107.12" width="0.22" height="5.15"/>
		<rect x="84.23" y="36.05" width="36.86" height="0.22"/>
		<rect x="62.79" y="36.05" width="2.87" height="0.22"/>
		<path d="M26.45,18.97h-9.9v43.45h9.9V29.38c3.28,2.64,6.56,5.27,9.85,7.91v-9.95C33.02,24.55,29.73,21.76,26.45,18.97z"/>
		<path d="M78.09,26.76c0,0.87-0.29,2.02-1.44,3.37l-9.02,10.66V43h16.05v-4.43h-8.6l5.01-5.59c2.09-2.31,3.02-4.53,3.02-6.64
			c0-3.67-2.76-5.61-5.9-6.08v4.48C77.75,25.14,78.09,25.8,78.09,26.76z"/>
		<path d="M73.84,24.66V20.3c-3.18,0.57-5.76,2.65-5.76,6.22h4.71C72.88,25.61,73.28,25.01,73.84,24.66z"/>
	</g>
</g>
</svg>
