<?xml version="1.0" encoding="UTF-8"?>
<svg id="Calque_1" data-name="Calque 1" xmlns="http://www.w3.org/2000/svg" viewBox="0 0 192.72 178.37">
  <defs>
    <style>
      .cls-1 {
        fill: none;
      }
    </style>
  </defs>
  <path class="cls-1" d="M103.77,126.59h11.61l1.44-23.56,.81-.9v-.27c-2.99,.09-8.24,.77-12.87,4.42-7.93,6.24-7.92,16.34-7.92,20.4,0,3.8,.01,14.88,8.55,20.96,4.69,3.34,9.84,3.67,12.4,3.65v-.22c-1.22-1.28-2.44-2.55-3.66-3.83l1.24-20.29h-11.59v-.35Z"/>
  <path class="cls-1" d="M116.15,42.46h1.67v-2.96c-.89,.55-1.52,1.5-1.67,2.96Z"/>
  <path d="M153.07,153.82c1.68-1.39,3.02-2.56,3.9-3.36l9.2-7.91-9.7-11.07-9.8,8.43c-1.44,1.2-3.57,3.01-6.12,5.26,0,0,0,0,0,0l-5.45,4.68s0,0,0,0c-2.22,1.41-5.81,2.64-11.76,1.74v15.22c3.65,.56,10.67,1.15,15.85-1.89,2.91-1.71,5.61-4.01,5.61-4.01h0c.09-.08,.17-.15,.25-.22l8.01-6.89Z"/>
  <path d="M122.99,101.86c14.93,0,19.72,9.93,19.72,9.93l11.36-9.71s-7.54-15.58-31.11-15.66v13.17l.03,2.27Z"/>
  <path d="M117.79,151.28c-2.56,.03-7.71-.3-12.4-3.65-8.53-6.08-8.54-17.15-8.55-20.96,0-4.06-.01-14.15,7.92-20.4,4.63-3.65,9.88-4.34,12.87-4.42v-15.44c-8.84,.08-16.31,2.37-22.29,6.23V30.05h-15.69c-5.34,4.63-10.68,9.25-16.01,13.88v15.98c5.34-3.97,10.68-7.95,16.01-11.92v51.37h7.99c-6.16,7.19-9.41,16.74-9.41,26.99,0,20.41,12.92,40.38,39.55,40.38l.06-15.6s-.04-.04-.06-.07v.22Z"/>
  <polygon points="158.44 129.42 168.12 140.46 179.87 130.36 170.2 119.32 158.44 129.42"/>
  <rect x="182.1" y="126.39" width="10.61" height=".35"/>
  <rect x="120.5" width=".35" height="25.1"/>
  <rect x="120.5" y="72.71" width=".35" height="10.2"/>
  <rect x="60.8" width=".35" height="30.07"/>
  <rect y="57.56" width="19.85" height=".35"/>
  <polygon points="120.85 105.17 120.5 105.17 120.5 126.59 115.38 126.59 103.77 126.59 103.77 126.94 115.36 126.94 120.5 126.94 120.5 143.22 120.5 147.37 120.85 147.37 120.85 140.26 120.85 126.94 122.45 126.94 148.2 126.94 148.2 126.59 122.49 126.59 120.85 126.59 120.85 105.17"/>
  <polygon points="60.8 126.59 60.8 126.94 60.8 126.95 61.15 126.95 61.15 126.94 73.6 126.94 73.6 126.59 61.15 126.59 61.15 64.67 60.8 64.67 60.8 126.59"/>
  <rect x="120.5" y="170.21" width=".35" height="8.16"/>
  <rect x="134.29" y="57.56" width="58.43" height=".35"/>
  <rect x="100.3" y="57.56" width="4.54" height=".35"/>
  <path d="M42.7,30.48h-15.69V99.36h15.69V47c5.2,4.18,10.41,8.36,15.61,12.54v-15.78c-5.2-4.42-10.41-8.85-15.61-13.27Z"/>
  <path d="M124.56,42.83c0,1.37-.46,3.21-2.29,5.34l-14.3,16.89v3.51h25.44v-7.02h-13.64l7.94-8.85c3.31-3.66,4.78-7.17,4.78-10.53,0-5.82-4.37-8.89-9.35-9.64v7.11c.87,.63,1.41,1.67,1.41,3.19Z"/>
  <path d="M117.82,39.51v-6.91c-5.03,.9-9.12,4.21-9.13,9.87h7.46c.15-1.46,.78-2.4,1.67-2.96Z"/>
</svg>